<?xml version="1.0" encoding="utf-8"?>
<!-- Generator: Adobe Illustrator 19.2.1, SVG Export Plug-In . SVG Version: 6.00 Build 0)  -->
<svg version="1.1" id="Layer_1" xmlns="http://www.w3.org/2000/svg" xmlns:xlink="http://www.w3.org/1999/xlink" x="0px" y="0px"
	 viewBox="0 0 800 800" style="enable-background:new 0 0 800 800;" xml:space="preserve">
<style type="text/css">
	.st0{display:none;opacity:0.52;}
	.st1{display:inline;fill:none;stroke:#000000;stroke-miterlimit:10;}
	.st2{display:inline;fill:none;stroke:#000000;stroke-width:1.1407;stroke-miterlimit:10;}
	.st3{display:inline;fill:none;stroke:#000000;stroke-width:1.4284;stroke-miterlimit:10;}
	.st4{display:inline;fill:none;stroke:#000000;stroke-width:1.7196;stroke-miterlimit:10;}
	.st5{fill:#F9E7CD;}
	.st6{fill:#FFFFFF;stroke:#281E0D;stroke-width:6;stroke-linejoin:round;stroke-miterlimit:10;}
	.st7{fill:none;stroke:#281E0D;stroke-width:6.1609;stroke-linecap:round;stroke-miterlimit:10;}
	.st8{fill:#281E0D;stroke:#281E0D;stroke-width:1.2322;stroke-linecap:round;stroke-linejoin:round;stroke-miterlimit:10;}
	.st9{fill:#281E0D;stroke:#281E0D;stroke-width:6.1609;stroke-linecap:round;stroke-linejoin:round;stroke-miterlimit:10;}
	.st10{display:none;fill:none;stroke:#E0B673;stroke-miterlimit:10;}
	.st11{fill:#FFD995;}
	.st12{fill:#FFFFFF;}
	.st13{fill:#6A2B05;}
</style>
<g class="st0">
	<circle class="st1" cx="567.5" cy="370.1" r="232.5"/>
	<circle class="st2" cx="173.6" cy="375.1" r="167.7"/>
	<circle class="st3" cx="319" cy="157.1" r="94.3"/>
	<circle class="st4" cx="325.4" cy="584" r="90.2"/>
</g>
<path class="st5" d="M563.5,137.6c-70.3,0.3-133.3,31.8-175.7,81.4l-1.8,1.7c-9.1,8.3-15.9,14.1-26.6,20.7
	c-23.5,15.3-51.7,23.8-81.8,23.8c-43,0-81.7-18.1-109.1-47c-6.3-6.6-15.5-9.7-24.5-8.3C64.1,222.5,2.9,291.5,2.9,375.1
	c0,92.6,75.1,167.7,167.7,167.7c37.3,0,71.9-11,99.7-31.6l1.5-1.2c10-6.4,19.5-10.8,30.6-14.3C339.9,479,383.5,470,429.8,470
	c96.1,0,179.8,41.1,223.6,102c4.2,5.8,12.1,7.7,18.5,4.4C746.3,537.5,797,459.7,797,370.1C797,242.7,690.9,137.1,563.5,137.6z"/>
<path class="st6" d="M452.2,470.9l22.5-290.2L226.5,180L253,521.8"/>
<path class="st7" d="M486.8,179.8"/>
<path class="st7" d="M214.4,179.8"/>
<path class="st8" d="M456.6,133H244.7c-4.5,0-8.4,2.9-9.7,7.2l-11.7,39.5H478l-11.7-39.5C465,135.9,461.1,133,456.6,133z"/>
<path class="st9" d="M482.7,188H218.6c-2.3,0-4.1-1.9-4.1-4.1l0,0c0-2.3,1.9-4.1,4.1-4.1h264.1c2.3,0,4.1,1.9,4.1,4.1l0,0
	C486.8,186.2,485,188,482.7,188z"/>
<path class="st10" d="M168.6,218.1c-4.2,3.6-13.7-5.4-24.5-8.3C100.2,197.9,3,277.1,3,375.1C3,467.7,78,542.8,170.6,542.8
	c37.3,0,71.9-11,99.7-31.6l1.5-1.2c10-6.4,19.5-10.8,30.6-14.3C339.9,479,383.6,470,429.8,470c96.1,0,179.8,41.1,223.6,102
	c4.2,5.8,12.1,7.7,18.5,4.4C746.3,537.5,797,459.7,797,370.1c0-132.2-243.4-179.4-233.5-232.5c7.7-41,159.8-82.8,256.5-12.6
	c74.9,54.5,80.6,150.3,84,207c1.7,27.8,11,185.8-102,288c-68.9,62.2-145.8,70-274,83c-83.9,8.5-182.5,17.3-296-28
	c-17.5-7-92.6-38.1-168-109C-11.2,495.3-45.7,423.5-66,380c-30.9-66-46.1-99.8-33-137c20-57,89.8-78.5,127-90
	c32.1-9.9,73.7-22.8,106-1C162.3,171.1,176,211.8,168.6,218.1z"/>
<path class="st11" d="M270.3,510.6l1.5-1.2c10-6.4,19.5-10.8,30.6-14.3c37.5-16.7,81.1-25.7,127.4-25.7c3.7,0,7.4,0.1,11.1,0.2
	c4.2-53.9,8.4-108.5,12.6-162.7c-13.1,7.9-28.4,12.5-44.8,12.5c-22.7,0-43.3-8.6-58.8-22.8c-15.2-12.9-34.9-20.7-56.4-20.7
	c-17.4,0-33.6,4.9-47.2,13.7l17.5,225.6C266,513.7,268.2,512.1,270.3,510.6z"/>
<g>
	<path class="st12" d="M521,438l1.5,1l-19,61l-1.6,1.4c0,0-1,0-2.1-0.3c-1.2-0.3-1.5-35.9-1.5-35.9l7.1-19.5l9.3-6.7L521,438z"/>
	<g>
		<path class="st13" d="M499.6,501c0.1,0,0.1,0,0.2,0c4.1-8.9,4.9-16.3,4.7-21.9c-0.3-7.7-2.5-11.8-1.1-18.8
			c2.1-10.4,10.3-17.7,17.5-22.4c-1.4-0.8-2.9-1.5-4.5-1.9c-12.8-3.4-27,8.4-31.7,26.3c-4.1,15.5,3.6,35.6,14.5,38.5
			C499.4,501,499.5,501,499.6,501z"/>
		<path class="st13" d="M522.5,439c-7.1,4.7-15,11.9-17.1,22.1c-1.4,7,0.8,11.1,1.1,18.8c0.2,5.5-0.7,12.7-4.5,21.4
			c10.9,0.5,25.3-12.3,29.1-26.7C535,459.8,531.2,445.4,522.5,439z"/>
	</g>
</g>
<g>
	<path class="st12" d="M716.6,386.6l1.3-0.1l16.4,42.5l-0.3,1.5c0,0-0.5,0.4-1.3,0.8s-16.8-19.4-16.8-19.4l-4.7-14.1l2.2-7.9
		L716.6,386.6z"/>
	<g>
		<path class="st13" d="M732.5,431.3c0,0,0.1,0,0.1-0.1c-1.7-6.8-4.4-11.3-7-14.3c-3.5-4.2-6.6-5.5-8.9-10
			c-3.4-6.7-2.1-14.5-0.1-20.3c-1.1,0.2-2.3,0.5-3.3,0.9c-8.6,3.8-11.4,16.6-6.1,28.7c4.6,10.5,17.8,18.3,25.2,15.1
			C732.4,431.4,732.5,431.4,732.5,431.3z"/>
		<path class="st13" d="M717.9,386.5c-1.9,5.8-3.1,13.3,0.2,19.9c2.3,4.5,5.3,5.8,8.9,10c2.5,3,5.3,7.4,6.9,14
			c6.3-4.5,8.7-18.1,4.5-27.8C734.1,392.6,725.6,386.2,717.9,386.5z"/>
	</g>
</g>
<g>
	<path class="st12" d="M268.1,520.7l-0.2,1.4l-49,7.4l-1.5-0.7c0,0-0.3-0.7-0.5-1.6c-0.2-0.9,24.6-13.2,24.6-13.2l16-1.7l7.8,4.2
		L268.1,520.7z"/>
	<g>
		<path class="st13" d="M216.9,527.1c0,0.1,0,0.1,0,0.2c7.6-0.2,13-2.1,16.9-4.1c5.3-2.8,7.4-5.7,12.7-7.1c8-2.1,15.8,1.2,21.6,4.6
			c0.1-1.2,0-2.5-0.2-3.8c-2-10.1-15-16-29.1-13.2c-12.2,2.4-23.6,14.6-22,23.2C216.8,527,216.8,527,216.9,527.1z"/>
		<path class="st13" d="M267.9,522.1c-5.7-3.4-13.4-6.5-21.2-4.4c-5.4,1.4-7.4,4.3-12.7,7.1c-3.8,2-9.1,3.9-16.5,4.1
			c3.3,7.8,17.2,13.5,28.5,11.3C257.6,537.9,266.4,530.4,267.9,522.1z"/>
	</g>
</g>
<g>
	<path class="st12" d="M507.2,116.2l1,0.8l-15.7,42.8l-1.2,0.9c0,0-0.7,0-1.5-0.3c-0.8-0.3,0.2-25.7,0.2-25.7l5.8-13.7l6.9-4.5
		L507.2,116.2z"/>
	<g>
		<path class="st13" d="M489.7,160.3c0,0,0.1,0,0.2,0c3.2-6.2,4.1-11.4,4.2-15.4c0.1-5.5-1.3-8.5-0.1-13.4c1.9-7.3,8-12.2,13.3-15.4
			c-1-0.6-2-1.1-3.1-1.5c-9-2.9-19.5,5-23.5,17.6c-3.5,10.9,1.3,25.5,9,28C489.6,160.3,489.7,160.3,489.7,160.3z"/>
		<path class="st13" d="M508.2,116.9c-5.2,3.1-11.1,8-13,15.2c-1.3,4.9,0.2,7.9,0.1,13.4c-0.1,3.9-0.9,9-4,15.1
			c7.7,0.7,18.5-7.9,21.7-18C516.4,132.2,514.2,121.8,508.2,116.9z"/>
	</g>
</g>
<g>
	<path class="st12" d="M80.2,213.2l1,0.8l-15.7,42.8l-1.2,0.9c0,0-0.7,0-1.5-0.3s0.2-25.7,0.2-25.7l5.8-13.7l6.9-4.5L80.2,213.2z"/>
	<g>
		<path class="st13" d="M62.7,257.3c0,0,0.1,0,0.2,0c3.2-6.2,4.1-11.4,4.2-15.4c0.1-5.5-1.3-8.5-0.1-13.4c1.9-7.3,8-12.2,13.3-15.4
			c-1-0.6-2-1.1-3.1-1.5c-9-2.9-19.5,5-23.5,17.6c-3.5,10.9,1.3,25.5,9,28C62.6,257.3,62.7,257.3,62.7,257.3z"/>
		<path class="st13" d="M81.2,213.9c-5.2,3.1-11.1,8-13,15.2c-1.3,4.9,0.2,7.9,0.1,13.4c-0.1,3.9-0.9,9-4,15.1
			c7.7,0.7,18.5-7.9,21.7-18C89.4,229.2,87.2,218.8,81.2,213.9z"/>
	</g>
</g>
<g>
	<path class="st12" d="M183,407.5l-0.9,1.6l-62.9-16.7l-1.5-1.6c0,0-0.1-1,0.2-2.2c0.3-1.2,36.5-3.1,36.5-3.1l20.2,6.4l7.2,9.2
		L183,407.5z"/>
	<g>
		<path class="st13" d="M118,388.5c0,0.1,0,0.1,0,0.2c9.2,3.7,16.8,4.3,22.5,3.9c7.8-0.6,11.9-3,19-1.9c10.7,1.7,18.4,9.7,23.6,16.8
			c0.8-1.4,1.4-3,1.7-4.6c2.9-13.1-9.7-27.1-28.1-31.1c-16-3.5-36.1,5.2-38.6,16.5C118,388.3,118,388.4,118,388.5z"/>
		<path class="st13" d="M182.1,409.1c-5.1-7-12.8-14.8-23.3-16.4c-7.2-1.1-11.2,1.3-19,1.9c-5.6,0.4-13-0.1-22-3.7
			c0,11.1,13.6,25.2,28.4,28.5C161.4,422.7,175.9,418.2,182.1,409.1z"/>
	</g>
</g>
<g>
	<path class="st12" d="M602.6,254l0.5-1.2l45.4,3.9l1.2,0.9c0,0,0.2,0.7,0.1,1.5s-24.8,6.5-24.8,6.5l-14.7-2l-6.1-5.5L602.6,254z"/>
	<g>
		<path class="st13" d="M649.7,259.3c0-0.1,0-0.1,0-0.2c-6.8-1.5-12.1-0.9-16,0c-5.3,1.4-7.8,3.5-12.9,3.6
			c-7.6,0.1-13.9-4.5-18.3-8.8c-0.4,1.1-0.6,2.2-0.6,3.4c-0.4,9.4,10,17.5,23.2,18.1c11.5,0.5,24.3-7.9,24.6-16
			C649.7,259.5,649.7,259.4,649.7,259.3z"/>
		<path class="st13" d="M603,252.8c4.4,4.2,10.6,8.7,18,8.5c5.1-0.1,7.6-2.2,12.9-3.6c3.8-1,9-1.5,15.6-0.1
			c-1.3-7.7-12.4-15.8-23-16.2C615.6,240.9,606.2,245.8,603,252.8z"/>
	</g>
</g>
</svg>
